<svg width="40" height="40" viewBox="0 0 40 40" fill="none" xmlns="http://www.w3.org/2000/svg">
<path d="M19.5833 39.1667C30.3989 39.1667 39.1667 30.3989 39.1667 19.5833C39.1667 8.76776 30.3989 0 19.5833 0C8.76776 0 0 8.76776 0 19.5833C0 30.3989 8.76776 39.1667 19.5833 39.1667Z" fill="#EFF9FF"/>
<path fill-rule="evenodd" clip-rule="evenodd" d="M22.423 9.00105C22.0474 8.98661 21.6739 9.12156 21.3925 9.37643C21.1684 9.57938 21.0162 9.84619 20.957 10.1382L20.9349 10.303L20.9299 10.4491L21.3741 16.9735C21.4295 17.8051 22.1615 18.4382 23.0133 18.39L29.6588 17.9567C30.0477 17.9286 30.4041 17.7524 30.6545 17.4668C30.8538 17.2393 30.9737 16.9562 30.9977 16.6585L31 16.4567L30.9904 16.3408C30.3029 12.2016 26.7085 9.12227 22.423 9.00105ZM22.4113 10.449L22.6287 10.4593C26.0119 10.6644 28.8318 13.0802 29.4854 16.3335L29.5182 16.5135L22.9214 16.945C22.888 16.9469 22.8537 16.9172 22.8511 16.8781L22.4113 10.449ZM17.7814 12.8453C18.502 12.7468 19.211 13.1245 19.4978 13.7606C19.5855 13.9348 19.6382 14.1239 19.6533 14.321L20.0419 19.8095C20.0471 19.8847 20.0827 19.9548 20.1409 20.0042C20.1845 20.0413 20.2381 20.0645 20.298 20.0712L20.3599 20.0724L25.9341 19.7366C26.3867 19.71 26.8305 19.8675 27.1604 20.1719C27.4902 20.4763 27.6768 20.9004 27.6744 21.3912C27.4265 25.0037 24.773 28.0237 21.159 28.8065C17.545 29.5893 13.8361 27.9474 12.0578 24.7848C11.5823 23.9695 11.2618 23.0778 11.1138 22.1749L11.0664 21.8359C11.0253 21.5821 11.0032 21.3257 11 21.0795L11.0031 20.8372C11.0134 17.0655 13.6616 13.804 17.3881 12.9243L17.6438 12.8681L17.7814 12.8453ZM18.0164 14.2781L17.9322 14.2877L17.7037 14.3393C14.7353 15.0548 12.6062 17.6103 12.488 20.621L12.4828 20.8661C12.4757 21.0525 12.4825 21.2392 12.505 21.4378L12.5328 21.6408C12.6321 22.495 12.9079 23.3206 13.3491 24.0772C14.8163 26.6863 17.8667 28.0367 20.839 27.3929C23.8113 26.7491 25.9936 24.2653 26.1958 21.3414C26.1959 21.2974 26.1774 21.2552 26.1446 21.225C26.1228 21.2049 26.0959 21.1912 26.0675 21.1851L26.024 21.1817L20.459 21.5169C19.9894 21.5503 19.5255 21.3992 19.17 21.0971C18.8146 20.7951 18.5968 20.3669 18.5652 19.91L18.177 14.4262C18.1763 14.4171 18.1739 14.4082 18.1568 14.373C18.1315 14.317 18.0765 14.2813 18.0164 14.2781Z" fill="#0962E8"/>
</svg>
