<svg width="40" height="40" viewBox="0 0 40 40" fill="none" xmlns="http://www.w3.org/2000/svg">
<path d="M19.5833 39.1667C30.3989 39.1667 39.1667 30.3989 39.1667 19.5833C39.1667 8.76776 30.3989 0 19.5833 0C8.76776 0 0 8.76776 0 19.5833C0 30.3989 8.76776 39.1667 19.5833 39.1667Z" fill="#EFF9FF"/>
<path fill-rule="evenodd" clip-rule="evenodd" d="M20.6161 10H19.3811C18.6855 10 18.0186 10.2716 17.528 10.7546C17.0931 11.1827 16.827 11.7472 16.7758 12.3478L16.7672 12.5418C16.7578 13.1735 16.2474 13.6663 15.621 13.6663C15.479 13.6648 15.3314 13.6324 15.1956 13.5713L15.0624 13.5017C13.8316 12.8102 12.2313 13.2338 11.5092 14.4617L10.8599 15.507C10.1695 16.6805 10.51 18.1548 11.6245 18.9141L11.7795 19.0115C12.1615 19.2284 12.3799 19.599 12.3799 20C12.3799 20.3688 12.1949 20.7137 11.8865 20.9228L11.7811 20.9875C10.6265 21.6412 10.1716 23.0841 10.752 24.2844L10.8368 24.4442L11.4741 25.5224C11.8054 26.1083 12.3731 26.5497 13.0445 26.7366C13.6395 26.9023 14.2746 26.8565 14.8376 26.6084L15.0157 26.5213C15.3153 26.3516 15.6248 26.3109 15.9154 26.3871C16.2059 26.4633 16.4534 26.65 16.6027 26.9057C16.685 27.0418 16.7334 27.1822 16.7506 27.3277L16.7591 27.4753C16.7577 28.8493 17.9322 30 19.3811 30H20.6164C21.9845 30 23.12 28.9703 23.231 27.6414L23.2391 27.4698C23.2383 27.1379 23.3582 26.8524 23.5727 26.6422C23.7872 26.432 24.0786 26.3146 24.382 26.316C24.5214 26.3199 24.6746 26.3541 24.8166 26.4163L24.9527 26.485C26.1011 27.1344 27.6058 26.8008 28.3808 25.7089L28.4803 25.557L29.1399 24.4804C29.495 23.8833 29.5912 23.1817 29.4119 22.523C29.253 21.9391 28.8887 21.4297 28.3843 21.0841L28.2174 20.9793C27.9272 20.8149 27.736 20.5708 27.658 20.2844C27.58 19.998 27.6218 19.6929 27.7742 19.4368C27.8585 19.2926 27.9706 19.1726 28.1051 19.0807L28.3624 18.9223C29.4043 18.2293 29.7945 16.8652 29.2461 15.7184L29.1892 15.6067C29.1769 15.5776 29.1627 15.5492 29.1465 15.5217L28.5333 14.4793C27.8511 13.3192 26.3759 12.869 25.146 13.4355L24.9821 13.5184C24.6882 13.6869 24.3779 13.7295 24.0857 13.6551C23.7935 13.5808 23.5435 13.3957 23.3908 13.1405C23.3124 13.0112 23.2641 12.8708 23.2468 12.7254L23.2383 12.5777C23.2599 11.9497 22.9925 11.2768 22.4983 10.7787C22.0041 10.2806 21.3251 9.99971 20.6161 10ZM19.3811 11.4477H20.6164C20.9264 11.4476 21.2229 11.5703 21.4387 11.7878C21.6546 12.0054 21.7713 12.2992 21.7624 12.6025L21.7756 12.8545C21.8203 13.2398 21.9357 13.575 22.1181 13.8762C22.4673 14.4596 23.0423 14.8855 23.7143 15.0564C24.3863 15.2274 25.1001 15.1294 25.6983 14.7842L25.8015 14.7327L25.9125 14.6891C26.4009 14.5285 26.9764 14.7318 27.253 15.2021L27.8378 16.1973L27.8505 16.2253L27.9212 16.3588C28.1578 16.855 27.9601 17.4827 27.448 17.7761L27.2873 17.8753C26.9464 18.1073 26.6849 18.3872 26.4946 18.7126C26.1471 19.2971 26.0509 19.9987 26.2302 20.6574C26.3932 21.2563 26.7716 21.7748 27.2922 22.1195L27.5645 22.2882C27.7566 22.4207 27.915 22.6422 27.9841 22.896C28.0621 23.1824 28.0203 23.4875 27.868 23.7436L27.2236 24.7957L27.1511 24.9067C26.8529 25.3258 26.2647 25.4814 25.7687 25.2682L25.4528 25.11C25.1004 24.9547 24.7556 24.8778 24.4053 24.8686C23.6914 24.865 23.0212 25.1351 22.5279 25.6185C22.0345 26.1019 21.7588 26.7585 21.7621 27.4421L21.7565 27.5511C21.7099 28.1023 21.2137 28.5523 20.6164 28.5523H19.3811C18.7905 28.5523 18.3043 28.1145 18.2421 27.552L18.2219 27.1985C18.1772 26.8132 18.0618 26.478 17.8794 26.1768C17.5403 25.5959 16.9686 25.1645 16.2974 24.9886C15.6261 24.8126 14.911 24.9066 14.3108 25.2497L14.2021 25.3018C13.9857 25.3964 13.7083 25.4164 13.4484 25.344C13.1552 25.2624 12.9073 25.0696 12.7595 24.8084L12.1303 23.7449L12.074 23.6383C11.8356 23.144 12.0335 22.5163 12.5464 22.2256L12.7022 22.1296C13.4341 21.634 13.8575 20.8446 13.8575 20C13.8575 19.1429 13.422 18.3467 12.704 17.871L12.4432 17.7092C11.9826 17.3947 11.8338 16.7504 12.1313 16.2446L12.7806 15.1992C13.1049 14.6482 13.8038 14.4632 14.3519 14.7709L14.5443 14.8703C14.9036 15.0329 15.2559 15.1103 15.6133 15.114C16.9997 15.1142 18.1334 14.0709 18.2368 12.7415L18.2503 12.4366C18.2706 12.2074 18.3863 11.962 18.5753 11.7758C18.7887 11.5658 19.0786 11.4477 19.3811 11.4477ZM20.0032 16.7318C18.161 16.7318 16.6675 18.195 16.6675 20C16.6675 21.805 18.161 23.2682 20.0032 23.2682C21.8455 23.2682 23.339 21.805 23.339 20C23.339 18.195 21.8455 16.7318 20.0032 16.7318ZM20.0032 18.1796C21.0294 18.1796 21.8613 18.9946 21.8613 20C21.8613 21.0054 21.0294 21.8204 20.0032 21.8204C18.977 21.8204 18.1452 21.0054 18.1452 20C18.1452 18.9946 18.977 18.1796 20.0032 18.1796Z" fill="#0962E8"/>
</svg>
