<svg width="40" height="40" viewBox="0 0 40 40" fill="none" xmlns="http://www.w3.org/2000/svg">
<path d="M19.5833 39.1667C30.3989 39.1667 39.1667 30.3989 39.1667 19.5833C39.1667 8.76776 30.3989 0 19.5833 0C8.76776 0 0 8.76776 0 19.5833C0 30.3989 8.76776 39.1667 19.5833 39.1667Z" fill="#EFF9FF"/>
<path fill-rule="evenodd" clip-rule="evenodd" d="M24.8212 11.5814C24.8212 10.1557 25.9805 9 27.4106 9C28.8407 9 30 10.1557 30 11.5814C30 13.007 28.8407 14.1628 27.4106 14.1628C25.9805 14.1628 24.8212 13.007 24.8212 11.5814ZM28.5465 11.5814C28.5465 10.956 28.0379 10.449 27.4106 10.449C26.7833 10.449 26.2747 10.956 26.2747 11.5814C26.2747 12.2068 26.7833 12.7137 27.4106 12.7137C28.0379 12.7137 28.5465 12.2068 28.5465 11.5814ZM23.5277 16.5402C23.7736 16.2239 24.2301 16.1662 24.5473 16.4113C24.8358 16.6341 24.9099 17.0304 24.7363 17.3383L24.6767 17.4277L21.8384 21.0796C21.6139 21.3685 21.2139 21.4415 20.9047 21.2658L20.815 21.2056L18.0835 19.0668L15.6312 22.2448C15.4086 22.5331 15.0113 22.6083 14.7019 22.4363L14.612 22.3772C14.3228 22.1554 14.2474 21.7593 14.4199 21.4508L14.4792 21.3612L17.3795 17.6032C17.6036 17.3129 18.0046 17.239 18.3145 17.415L18.4045 17.4753L21.1368 19.6155L23.5277 16.5402ZM23.2236 10.538C23.2236 10.1379 22.8982 9.81348 22.4968 9.81348H15.4543L15.2273 9.81726C12.0752 9.92283 10 12.2306 10 15.5073V23.315L10.0035 23.5481C10.1006 26.7878 12.2269 29 15.4543 29H23.7918L24.0188 28.9962C27.1721 28.891 29.2461 26.5901 29.2461 23.315V16.5153L29.2394 16.417C29.1913 16.0634 28.8872 15.7908 28.5193 15.7908C28.1179 15.7908 27.7926 16.1152 27.7926 16.5153V23.315L27.7886 23.5399C27.7007 25.9868 26.1725 27.551 23.7918 27.551H15.4543L15.2384 27.5467C12.891 27.4534 11.4535 25.8291 11.4535 23.315V15.5073L11.4575 15.2822C11.5455 12.8328 13.0757 11.2625 15.4543 11.2625H22.4968L22.5954 11.2559C22.9502 11.2079 23.2236 10.9048 23.2236 10.538Z" fill="#0962E8"/>
</svg>
