<svg width="40" height="40" viewBox="0 0 40 40" fill="none" xmlns="http://www.w3.org/2000/svg">
<path d="M19.5833 39.1667C30.3989 39.1667 39.1667 30.3989 39.1667 19.5833C39.1667 8.76776 30.3989 0 19.5833 0C8.76776 0 0 8.76776 0 19.5833C0 30.3989 8.76776 39.1667 19.5833 39.1667Z" fill="#EFF9FF"/>
<path fill-rule="evenodd" clip-rule="evenodd" d="M13.9494 11.5C11.7684 11.5 10 13.2632 10 15.4371C10 17.6102 11.7686 19.3732 13.9494 19.3732C16.1303 19.3732 17.8989 17.6102 17.8989 15.4371C17.8989 13.2632 16.1305 11.5 13.9494 11.5ZM13.9494 13.0074C15.295 13.0074 16.3863 14.0956 16.3863 15.4371C16.3863 16.7777 15.2949 17.8658 13.9494 17.8658C12.604 17.8658 11.5126 16.7777 11.5126 15.4371C11.5126 14.0956 12.6039 13.0074 13.9494 13.0074ZM29.9997 15.4371C29.9997 15.0209 29.6611 14.6834 29.2434 14.6834H21.5652L21.4626 14.6903C21.0935 14.7402 20.8089 15.0556 20.8089 15.4371C20.8089 15.8534 21.1475 16.1908 21.5652 16.1908H29.2434L29.346 16.184C29.7151 16.1341 29.9997 15.8187 29.9997 15.4371ZM22.1011 26.564C22.1011 24.3902 23.8693 22.628 26.0506 22.628C28.2318 22.628 30 24.3902 30 26.564C30 28.7378 28.2318 30.5 26.0506 30.5C23.8693 30.5 22.1011 28.7378 22.1011 26.564ZM28.4874 26.564C28.4874 25.2227 27.3964 24.1354 26.0506 24.1354C24.7047 24.1354 23.6137 25.2227 23.6137 26.564C23.6137 27.9052 24.7047 28.9926 26.0506 28.9926C27.3964 28.9926 28.4874 27.9052 28.4874 26.564ZM19.1912 26.564C19.1912 26.1477 18.8526 25.8103 18.4349 25.8103H10.7567L10.6541 25.8171C10.285 25.8671 10.0004 26.1824 10.0004 26.564C10.0004 26.9802 10.339 27.3177 10.7567 27.3177H18.4349L18.5375 27.3108C18.9067 27.2609 19.1912 26.9455 19.1912 26.564Z" fill="#0962E8"/>
</svg>
